<mxfile host="Electron" modified="2020-12-28T13:38:26.802Z" agent="5.0 (X11; Linux x86_64) AppleWebKit/537.36 (KHTML, like Gecko) draw.io/13.9.9 Chrome/85.0.4183.121 Electron/10.1.5 Safari/537.36" etag="qDnPtG_9Z_JAGX71W4jm" compressed="false" version="13.9.9" type="device">
  <diagram id="uBbau7ussQgPSl02ERnx" name="Page-1">
    <mxGraphModel dx="1054" dy="701" grid="1" gridSize="10" guides="1" tooltips="1" connect="1" arrows="1" fold="1" page="1" pageScale="1" pageWidth="850" pageHeight="1100" math="0" shadow="0">
      <root>
        <mxCell id="0" />
        <mxCell id="1" parent="0" />
        <mxCell id="380" value="начало&lt;br&gt;list_autoload()" style="rounded=1;whiteSpace=wrap;html=1;arcSize=50;" parent="1" vertex="1">
          <mxGeometry x="250" width="120" height="30" as="geometry" />
        </mxCell>
        <mxCell id="381" value="конец" style="rounded=1;whiteSpace=wrap;html=1;arcSize=50;" parent="1" vertex="1">
          <mxGeometry x="342" y="1140" width="120" height="30" as="geometry" />
        </mxCell>
        <mxCell id="378" value="file" style="rhombus;whiteSpace=wrap;html=1;rounded=0;" parent="1" vertex="1">
          <mxGeometry x="250" y="130" width="120" height="60" as="geometry" />
        </mxCell>
        <mxCell id="9LYRRc5FBTX6bfO_Ul-T-408" style="edgeStyle=orthogonalEdgeStyle;rounded=0;orthogonalLoop=1;jettySize=auto;html=1;exitX=1;exitY=0.5;exitDx=0;exitDy=0;entryX=0.5;entryY=0;entryDx=0;entryDy=0;" parent="1" source="372" target="371" edge="1">
          <mxGeometry relative="1" as="geometry" />
        </mxCell>
        <mxCell id="372" value="file_size % sizeof(FileData)!= 0" style="rhombus;whiteSpace=wrap;html=1;rounded=0;" parent="1" vertex="1">
          <mxGeometry x="180" y="290" width="120" height="60" as="geometry" />
        </mxCell>
        <mxCell id="9LYRRc5FBTX6bfO_Ul-T-406" style="edgeStyle=orthogonalEdgeStyle;rounded=0;orthogonalLoop=1;jettySize=auto;html=1;exitX=0.5;exitY=1;exitDx=0;exitDy=0;" parent="1" source="371" edge="1">
          <mxGeometry relative="1" as="geometry">
            <mxPoint x="240" y="440" as="targetPoint" />
          </mxGeometry>
        </mxCell>
        <mxCell id="371" value="puts(AUTOSAVE &quot; seems to be corrupted&quot;)" style="rounded=0;whiteSpace=wrap;html=1;" parent="1" vertex="1">
          <mxGeometry x="260" y="360" width="120" height="60" as="geometry" />
        </mxCell>
        <mxCell id="370" value="size_t file_size = get_file_size(file)" style="rounded=0;whiteSpace=wrap;html=1;" parent="1" vertex="1">
          <mxGeometry x="180" y="210" width="120" height="60" as="geometry" />
        </mxCell>
        <mxCell id="390" style="edgeStyle=orthogonalEdgeStyle;rounded=0;orthogonalLoop=1;jettySize=auto;html=1;exitX=0.5;exitY=1;exitDx=0;exitDy=0;entryX=0.5;entryY=0;entryDx=0;entryDy=0;" parent="1" source="370" target="372" edge="1">
          <mxGeometry relative="1" as="geometry" />
        </mxCell>
        <mxCell id="377" value="first_alloc_begin = last_readed = new(ListElement);&lt;br&gt;first_alloc_end = first_alloc_begin + 1" style="rounded=0;whiteSpace=wrap;html=1;" parent="1" vertex="1">
          <mxGeometry x="340" y="210" width="120" height="60" as="geometry" />
        </mxCell>
        <mxCell id="392" style="edgeStyle=orthogonalEdgeStyle;rounded=0;orthogonalLoop=1;jettySize=auto;html=1;exitX=0;exitY=0.5;exitDx=0;exitDy=0;entryX=0.5;entryY=0;entryDx=0;entryDy=0;" parent="1" source="378" target="370" edge="1">
          <mxGeometry relative="1" as="geometry">
            <Array as="points">
              <mxPoint x="240" y="160" />
            </Array>
          </mxGeometry>
        </mxCell>
        <mxCell id="393" style="edgeStyle=orthogonalEdgeStyle;rounded=0;orthogonalLoop=1;jettySize=auto;html=1;exitX=1;exitY=0.5;exitDx=0;exitDy=0;entryX=0.5;entryY=0;entryDx=0;entryDy=0;" parent="1" source="378" target="377" edge="1">
          <mxGeometry relative="1" as="geometry" />
        </mxCell>
        <mxCell id="369" value="FILE * file = fopen&lt;br&gt;(AUTOSAVE, &quot;rb&quot;)" style="rounded=0;whiteSpace=wrap;html=1;" parent="1" vertex="1">
          <mxGeometry x="250" y="50" width="120" height="60" as="geometry" />
        </mxCell>
        <mxCell id="394" style="edgeStyle=orthogonalEdgeStyle;rounded=0;orthogonalLoop=1;jettySize=auto;html=1;exitX=0.5;exitY=1;exitDx=0;exitDy=0;entryX=0.5;entryY=0;entryDx=0;entryDy=0;" parent="1" source="369" target="378" edge="1">
          <mxGeometry relative="1" as="geometry" />
        </mxCell>
        <mxCell id="395" style="edgeStyle=orthogonalEdgeStyle;rounded=0;orthogonalLoop=1;jettySize=auto;html=1;exitX=0.5;exitY=1;exitDx=0;exitDy=0;entryX=0.5;entryY=0;entryDx=0;entryDy=0;" parent="1" source="380" target="369" edge="1">
          <mxGeometry relative="1" as="geometry" />
        </mxCell>
        <mxCell id="m3DkRdyfCfyvNMYUJ8aG-395" value="1" style="whiteSpace=wrap;html=1;aspect=fixed;" parent="1" vertex="1">
          <mxGeometry x="372" y="50" width="20" height="20" as="geometry" />
        </mxCell>
        <mxCell id="m3DkRdyfCfyvNMYUJ8aG-396" value="2" style="whiteSpace=wrap;html=1;aspect=fixed;" parent="1" vertex="1">
          <mxGeometry x="372" y="130" width="20" height="20" as="geometry" />
        </mxCell>
        <mxCell id="m3DkRdyfCfyvNMYUJ8aG-397" value="13" style="whiteSpace=wrap;html=1;aspect=fixed;" parent="1" vertex="1">
          <mxGeometry x="462" y="210" width="20" height="20" as="geometry" />
        </mxCell>
        <mxCell id="m3DkRdyfCfyvNMYUJ8aG-398" value="3" style="whiteSpace=wrap;html=1;aspect=fixed;" parent="1" vertex="1">
          <mxGeometry x="302" y="210" width="20" height="20" as="geometry" />
        </mxCell>
        <mxCell id="m3DkRdyfCfyvNMYUJ8aG-399" value="4" style="whiteSpace=wrap;html=1;aspect=fixed;" parent="1" vertex="1">
          <mxGeometry x="302" y="290" width="20" height="20" as="geometry" />
        </mxCell>
        <mxCell id="m3DkRdyfCfyvNMYUJ8aG-400" value="5" style="whiteSpace=wrap;html=1;aspect=fixed;" parent="1" vertex="1">
          <mxGeometry x="360" y="338" width="20" height="20" as="geometry" />
        </mxCell>
        <mxCell id="m3DkRdyfCfyvNMYUJ8aG-408" value="+" style="text;html=1;align=center;verticalAlign=middle;resizable=0;points=[];autosize=1;" parent="1" vertex="1">
          <mxGeometry x="230" y="140" width="20" height="20" as="geometry" />
        </mxCell>
        <mxCell id="m3DkRdyfCfyvNMYUJ8aG-409" value="+" style="text;html=1;align=center;verticalAlign=middle;resizable=0;points=[];autosize=1;" parent="1" vertex="1">
          <mxGeometry x="300" y="320" width="20" height="20" as="geometry" />
        </mxCell>
        <mxCell id="2SMxL_nuk9Vsj5kGjb2S-417" style="edgeStyle=orthogonalEdgeStyle;rounded=0;orthogonalLoop=1;jettySize=auto;html=1;exitX=0.5;exitY=1;exitDx=0;exitDy=0;" parent="1" source="2SMxL_nuk9Vsj5kGjb2S-395" edge="1">
          <mxGeometry relative="1" as="geometry">
            <mxPoint x="402" y="1120" as="targetPoint" />
            <Array as="points">
              <mxPoint x="240" y="1120" />
              <mxPoint x="402" y="1120" />
            </Array>
          </mxGeometry>
        </mxCell>
        <mxCell id="2SMxL_nuk9Vsj5kGjb2S-395" value="fclose(file)" style="rounded=0;whiteSpace=wrap;html=1;" parent="1" vertex="1">
          <mxGeometry x="180" y="1040" width="120" height="60" as="geometry" />
        </mxCell>
        <mxCell id="2SMxL_nuk9Vsj5kGjb2S-396" value="Цикл A&lt;br&gt;Пока 0 !=&lt;br&gt;&amp;nbsp;fread(last_readed, sizeof(FileData), 1, file)" style="strokeWidth=1;html=1;shape=mxgraph.flowchart.loop_limit;whiteSpace=wrap;flipV=0;" parent="1" vertex="1">
          <mxGeometry x="180" y="800" width="120" height="60" as="geometry" />
        </mxCell>
        <mxCell id="2SMxL_nuk9Vsj5kGjb2S-397" style="edgeStyle=orthogonalEdgeStyle;rounded=0;orthogonalLoop=1;jettySize=auto;html=1;exitX=0.5;exitY=0;exitDx=0;exitDy=0;exitPerimeter=0;entryX=0.5;entryY=0;entryDx=0;entryDy=0;" parent="1" source="2SMxL_nuk9Vsj5kGjb2S-398" target="2SMxL_nuk9Vsj5kGjb2S-395" edge="1">
          <mxGeometry relative="1" as="geometry" />
        </mxCell>
        <mxCell id="2SMxL_nuk9Vsj5kGjb2S-398" value="Цикл A" style="strokeWidth=1;html=1;shape=mxgraph.flowchart.loop_limit;whiteSpace=wrap;flipV=1;" parent="1" vertex="1">
          <mxGeometry x="180" y="960" width="120" height="60" as="geometry" />
        </mxCell>
        <mxCell id="2SMxL_nuk9Vsj5kGjb2S-399" value="list_add(last_readed);&lt;br&gt;last_readed++" style="rounded=0;whiteSpace=wrap;html=1;" parent="1" vertex="1">
          <mxGeometry x="180" y="880" width="120" height="60" as="geometry" />
        </mxCell>
        <mxCell id="2SMxL_nuk9Vsj5kGjb2S-400" style="edgeStyle=orthogonalEdgeStyle;rounded=0;orthogonalLoop=1;jettySize=auto;html=1;exitX=0.5;exitY=1;exitDx=0;exitDy=0;entryX=0.5;entryY=0;entryDx=0;entryDy=0;" parent="1" source="2SMxL_nuk9Vsj5kGjb2S-399" target="2SMxL_nuk9Vsj5kGjb2S-398" edge="1">
          <mxGeometry relative="1" as="geometry" />
        </mxCell>
        <mxCell id="2SMxL_nuk9Vsj5kGjb2S-401" style="edgeStyle=orthogonalEdgeStyle;rounded=0;orthogonalLoop=1;jettySize=auto;html=1;exitX=0.5;exitY=1;exitDx=0;exitDy=0;entryX=0.5;entryY=0;entryDx=0;entryDy=0;" parent="1" source="2SMxL_nuk9Vsj5kGjb2S-396" target="2SMxL_nuk9Vsj5kGjb2S-399" edge="1">
          <mxGeometry relative="1" as="geometry" />
        </mxCell>
        <mxCell id="2SMxL_nuk9Vsj5kGjb2S-402" value="last_readed = first_alloc_begin" style="rounded=0;whiteSpace=wrap;html=1;" parent="1" vertex="1">
          <mxGeometry x="180" y="720" width="120" height="60" as="geometry" />
        </mxCell>
        <mxCell id="2SMxL_nuk9Vsj5kGjb2S-403" style="edgeStyle=orthogonalEdgeStyle;rounded=0;orthogonalLoop=1;jettySize=auto;html=1;exitX=0.5;exitY=1;exitDx=0;exitDy=0;entryX=0.5;entryY=0;entryDx=0;entryDy=0;" parent="1" source="2SMxL_nuk9Vsj5kGjb2S-402" target="2SMxL_nuk9Vsj5kGjb2S-396" edge="1">
          <mxGeometry relative="1" as="geometry" />
        </mxCell>
        <mxCell id="2SMxL_nuk9Vsj5kGjb2S-404" style="edgeStyle=orthogonalEdgeStyle;rounded=0;orthogonalLoop=1;jettySize=auto;html=1;exitX=0.5;exitY=1;exitDx=0;exitDy=0;entryX=0.5;entryY=0;entryDx=0;entryDy=0;" parent="1" source="2SMxL_nuk9Vsj5kGjb2S-405" target="2SMxL_nuk9Vsj5kGjb2S-407" edge="1">
          <mxGeometry relative="1" as="geometry" />
        </mxCell>
        <mxCell id="2SMxL_nuk9Vsj5kGjb2S-405" value="file_size /= sizeof(FileData);" style="rounded=0;whiteSpace=wrap;html=1;" parent="1" vertex="1">
          <mxGeometry x="180" y="560" width="120" height="60" as="geometry" />
        </mxCell>
        <mxCell id="2SMxL_nuk9Vsj5kGjb2S-406" style="edgeStyle=orthogonalEdgeStyle;rounded=0;orthogonalLoop=1;jettySize=auto;html=1;exitX=0.5;exitY=1;exitDx=0;exitDy=0;entryX=0.5;entryY=0;entryDx=0;entryDy=0;" parent="1" source="2SMxL_nuk9Vsj5kGjb2S-407" target="2SMxL_nuk9Vsj5kGjb2S-402" edge="1">
          <mxGeometry relative="1" as="geometry" />
        </mxCell>
        <mxCell id="2SMxL_nuk9Vsj5kGjb2S-407" value="&lt;font style=&quot;font-size: 12px&quot;&gt;&lt;span&gt;first_alloc_begin = malloc((file_size + 1)* sizeof(ListElement));&lt;br&gt;&lt;/span&gt;first_alloc_end = first_alloc_begin + file_size;&lt;/font&gt;&lt;span&gt;&lt;br&gt;&lt;/span&gt;" style="rounded=0;whiteSpace=wrap;html=1;" parent="1" vertex="1">
          <mxGeometry x="180" y="640" width="120" height="60" as="geometry" />
        </mxCell>
        <mxCell id="2SMxL_nuk9Vsj5kGjb2S-408" value="6" style="whiteSpace=wrap;html=1;aspect=fixed;" parent="1" vertex="1">
          <mxGeometry x="302" y="560" width="20" height="20" as="geometry" />
        </mxCell>
        <mxCell id="2SMxL_nuk9Vsj5kGjb2S-409" value="7" style="whiteSpace=wrap;html=1;aspect=fixed;" parent="1" vertex="1">
          <mxGeometry x="302" y="640" width="20" height="20" as="geometry" />
        </mxCell>
        <mxCell id="2SMxL_nuk9Vsj5kGjb2S-410" value="8" style="whiteSpace=wrap;html=1;aspect=fixed;" parent="1" vertex="1">
          <mxGeometry x="302" y="720" width="20" height="20" as="geometry" />
        </mxCell>
        <mxCell id="2SMxL_nuk9Vsj5kGjb2S-411" value="9" style="whiteSpace=wrap;html=1;aspect=fixed;" parent="1" vertex="1">
          <mxGeometry x="302" y="800" width="20" height="20" as="geometry" />
        </mxCell>
        <mxCell id="2SMxL_nuk9Vsj5kGjb2S-412" value="10" style="whiteSpace=wrap;html=1;aspect=fixed;" parent="1" vertex="1">
          <mxGeometry x="302" y="880" width="20" height="20" as="geometry" />
        </mxCell>
        <mxCell id="2SMxL_nuk9Vsj5kGjb2S-413" value="11" style="whiteSpace=wrap;html=1;aspect=fixed;" parent="1" vertex="1">
          <mxGeometry x="302" y="960" width="20" height="20" as="geometry" />
        </mxCell>
        <mxCell id="2SMxL_nuk9Vsj5kGjb2S-414" value="12" style="whiteSpace=wrap;html=1;aspect=fixed;" parent="1" vertex="1">
          <mxGeometry x="302" y="1040" width="20" height="20" as="geometry" />
        </mxCell>
        <mxCell id="2SMxL_nuk9Vsj5kGjb2S-418" value="" style="endArrow=none;html=1;entryX=0.5;entryY=1;entryDx=0;entryDy=0;" parent="1" target="372" edge="1">
          <mxGeometry width="50" height="50" relative="1" as="geometry">
            <mxPoint x="240" y="460" as="sourcePoint" />
            <mxPoint x="230" y="350" as="targetPoint" />
          </mxGeometry>
        </mxCell>
        <mxCell id="2SMxL_nuk9Vsj5kGjb2S-419" value="" style="endArrow=none;html=1;entryX=0.5;entryY=1;entryDx=0;entryDy=0;" parent="1" target="377" edge="1">
          <mxGeometry width="50" height="50" relative="1" as="geometry">
            <mxPoint x="400" y="460" as="sourcePoint" />
            <mxPoint x="480" y="370" as="targetPoint" />
          </mxGeometry>
        </mxCell>
        <mxCell id="2SMxL_nuk9Vsj5kGjb2S-421" value="" style="endArrow=classic;html=1;entryX=0.5;entryY=0;entryDx=0;entryDy=0;" parent="1" target="381" edge="1">
          <mxGeometry width="50" height="50" relative="1" as="geometry">
            <mxPoint x="400" y="540" as="sourcePoint" />
            <mxPoint x="442" y="520" as="targetPoint" />
          </mxGeometry>
        </mxCell>
        <mxCell id="2SMxL_nuk9Vsj5kGjb2S-422" value="" style="endArrow=classic;html=1;entryX=0.5;entryY=0;entryDx=0;entryDy=0;" parent="1" target="2SMxL_nuk9Vsj5kGjb2S-405" edge="1">
          <mxGeometry width="50" height="50" relative="1" as="geometry">
            <mxPoint x="240" y="540" as="sourcePoint" />
            <mxPoint x="290" y="530" as="targetPoint" />
          </mxGeometry>
        </mxCell>
        <mxCell id="2SMxL_nuk9Vsj5kGjb2S-423" value="А" style="ellipse;whiteSpace=wrap;html=1;aspect=fixed;" parent="1" vertex="1">
          <mxGeometry x="225" y="510" width="30" height="30" as="geometry" />
        </mxCell>
        <mxCell id="2SMxL_nuk9Vsj5kGjb2S-424" value="А" style="ellipse;whiteSpace=wrap;html=1;aspect=fixed;" parent="1" vertex="1">
          <mxGeometry x="225" y="460" width="30" height="30" as="geometry" />
        </mxCell>
        <mxCell id="2SMxL_nuk9Vsj5kGjb2S-425" value="Б" style="ellipse;whiteSpace=wrap;html=1;aspect=fixed;" parent="1" vertex="1">
          <mxGeometry x="385" y="460" width="30" height="30" as="geometry" />
        </mxCell>
        <mxCell id="2SMxL_nuk9Vsj5kGjb2S-426" value="Б" style="ellipse;whiteSpace=wrap;html=1;aspect=fixed;" parent="1" vertex="1">
          <mxGeometry x="385" y="510" width="30" height="30" as="geometry" />
        </mxCell>
      </root>
    </mxGraphModel>
  </diagram>
</mxfile>
